<?xml version="1.0" encoding="utf-8"?>
<!-- Svg Vector Icons : http://www.onlinewebfonts.com/icon -->
<!DOCTYPE svg PUBLIC "-//W3C//DTD SVG 1.1//EN" "http://www.w3.org/Graphics/SVG/1.1/DTD/svg11.dtd">
<svg version="1.1" xmlns="http://www.w3.org/2000/svg" xmlns:xlink="http://www.w3.org/1999/xlink" x="0px" y="0px" viewBox="0 0 256 256" enable-background="new 0 0 256 256" xml:space="preserve">
<metadata> Svg Vector Icons : http://www.onlinewebfonts.com/icon </metadata>
<g><g><g><path fill="#000000" d="M128.3,10.3c-4.2,1.1-8.3,4.4-10.3,8.3c-1.8,3.6-1.9,5.9-1.8,51.4l0.1,43.7l1.1,1.2c1.5,1.6,4.1,1.7,5.5,0.1l1-1.1V69.8c0-24.7,0.2-44.8,0.5-45.8c0.2-1,0.8-2.4,1.2-3c1.1-1.5,4.5-3.3,6.4-3.3c2.1,0,5,1.6,6.3,3.3l1.1,1.6l0.2,44.2l0.2,44.3l1.3,1.1c1.7,1.4,3.6,1.4,5.3,0l1.3-1.1V66.8V22.5l-1.1-2.6c-2.3-5.7-7.8-9.6-13.8-9.9C131.1,9.9,129.1,10,128.3,10.3z"/><path fill="#000000" d="M173.5,30.6c-3.1,1.2-6.8,4.6-8.3,7.5c-1,1.9-2.2,8.4-7.1,36.1c-3.3,18.6-6,34.3-6,35c0,4.2,6.6,4.8,7.6,0.7c0.1-0.6,2.8-15.8,6-33.8c3.2-18,5.9-33.1,6-33.6c0.1-0.5,0.8-1.5,1.4-2.2c4.2-5,12-3,13.5,3.4c0.3,1.3-1,9.1-5.6,35.5c-3.3,18.6-6,34.3-6,34.8c0,1.3,2.2,3.5,3.5,3.5c1.7,0,3.3-0.9,3.8-2.3c1-2.4,12.2-67.2,12.1-70.3c0-5.5-3.5-10.9-8.6-13.7C182.8,29.5,177,29.3,173.5,30.6z"/><path fill="#000000" d="M79.5,38.3C73.4,40.7,69,46.7,69,52.9c0,1.5,15.3,86.1,16,88.2c0.3,1.1,2.4,2.7,3.6,2.7c0.5,0,2.1-0.6,3.5-1.4c11.6-6.5,25.5-11.1,39.5-13.2c8.5-1.3,23.3-1.2,30.1,0.2c12.8,2.6,24.5,8.3,32.6,15.8c5.6,5.3,5.9,7.6,2.4,23.8c-11.6,53.3-14.8,64-19.9,68l-1.7,1.3l-35.8,0.1l-35.8,0.1l-2.1-1c-1.2-0.6-3.6-2.5-5.4-4.3c-2.8-2.9-7.1-9.5-34.3-53.2c-17.1-27.5-31.3-50.6-31.6-51.3c-0.6-1.7,0.3-3.2,3.2-4.9c4.4-2.5,10.4-1.5,16.4,3c1.3,1,9.7,10.1,18.7,20.2c9,10.2,16.8,18.9,17.5,19.5c3.4,3.2,8.4-1.1,5.8-4.9c-1.8-2.5-33.5-37.9-35.8-39.9c-3.2-2.8-8.6-5.6-12.7-6.6c-8.2-1.9-16.9,1.7-20.2,8.2c-1.5,3-1.5,5.3-0.1,8.7c1.2,2.8,61.2,99.4,64.4,103.5c2.9,3.8,7.3,7.6,10.8,9.3l3,1.5h37.2c43.2,0,40.2,0.3,45-4.6c4.8-4.8,7.1-10.7,11.8-30.1c4-16.4,11.6-50.9,11.9-53.8c0.4-3.6-0.6-8.4-2.2-11.8c-3.8-7.8-18.7-17.7-33.4-22.1c-8.6-2.6-13.1-3.2-24.5-3.2c-7.8,0-12,0.2-15.9,0.8c-12.2,1.9-23.5,5.1-33.2,9.5c-2.9,1.3-5.5,2.4-5.7,2.5c-0.6,0.1-15.1-78.9-14.9-81c0.9-7.5,11.1-9.4,14.5-2.7c0.8,1.6,2.4,9.6,6.4,32.8c2.9,16.9,5.5,31.5,5.8,32.4c0.5,2,1.9,3.1,3.9,3.1c1.5,0,3.2-1.2,3.6-2.7c0.1-0.5-2.3-15.6-5.5-33.6c-5.1-29.1-5.9-33.1-7.2-35.6c-1.6-3.1-4-5.5-7.3-7.1C88.3,37.5,82.5,37.2,79.5,38.3z"/><path fill="#000000" d="M216.1,66.8c-2.3,0.9-4.6,2.4-5.6,3.9c-0.6,0.7-5.8,11.7-11.7,24.4c-11.4,24.7-11.5,25-9.1,26.7c1.3,0.9,3.7,0.9,4.9-0.1c0.5-0.4,5.5-10.8,11.2-22.9c7.1-15.3,10.6-22.5,11.5-23.5c1.6-1.4,4.1-1.7,6.6-0.6c1.9,0.8,2.7,2.2,2.4,4.2c-0.1,0.8-4.4,13.3-9.5,27.7c-5.1,14.5-9.3,26.8-9.3,27.5c0,1.9,2,3.7,4.1,3.7c2.4,0,2.9-1,12.8-29.1c9-25.7,9.5-27.2,9.6-30.5c0-4-0.9-6.3-3.6-8.6C227.1,66.6,220,65.3,216.1,66.8z"/><path fill="#000000" d="M138,136.4c-3,1.7-2.8,4,0.6,8.3c10.8,13.6,27.7,22.5,42.8,22.5c2.9,0,3.4-0.1,4.2-1.1c1.4-1.5,1.6-2.5,0.9-4.2c-0.8-1.9-2.2-2.4-7.2-2.8c-11-0.7-23.8-7.4-32.1-16.8c-1.7-1.9-3.8-4.2-4.6-5.1C141.1,135.8,139.7,135.5,138,136.4z"/><path fill="#000000" d="M110.6,167.9c-1.4,0.7-2.5,2.8-2.1,4.2c0.5,1.9,1.5,2.6,5.5,3.8c8.1,2.3,13.3,5.4,19.6,11.5c5.8,5.6,10,12.3,13,20.8c0.8,2.3,1.8,4.6,2.1,5.2c0.9,1.3,3,1.8,4.8,0.9c2.4-1.2,2.5-3.1,0.5-8.9c-6.5-18.4-20.2-32-37.1-36.8C112.1,167.1,112.1,167.1,110.6,167.9z"/></g></g></g>
</svg>